<svg xmlns="http://www.w3.org/2000/svg" width="400" height="400" viewBox="0 0 400 400">
  <rect width="400" height="400" fill="#f3f4f6"/>
  <g transform="translate(200, 200)">
    <path d="M-60-60 L60-60 L60 60 L-60 60 Z M-50-50 L-50 30 L50 30 L50-50 Z M-50 40 L-50 50 L-20 50 L-20 40 Z M-10 40 L-10 50 L20 50 L20 40 Z M30 40 L30 50 L50 50 L50 40 Z" fill="#d1d5db"/>
    <circle cx="-20" cy="-20" r="12" fill="#d1d5db"/>
    <path d="M-50 10 L-30 -10 L-10 10 L10 -10 L30 10 L50 30 L-50 30 Z" fill="#d1d5db"/>
  </g>
  <text x="200" y="370" text-anchor="middle" font-family="Arial, sans-serif" font-size="16" fill="#9ca3af">No Image Available</text>
</svg>
